<svg width="36" height="36" viewBox="0 0 36 36" fill="none" xmlns="http://www.w3.org/2000/svg">
<circle cx="18" cy="18" r="18" fill="#0EA5E9"/>
<path d="M23 11V13.085C20.159 13.486 18.59 15.547 17.2 17.4C15.751 19.332 14.5 21 12 21H11V23H12C15.5 23 17.253 20.662 18.8 18.6C20.249 16.668 21.5 15 24 15H27L23 11Z" fill="#F0F9FF"/>
<path d="M15.406 16.455C15.472 16.368 15.531 16.293 15.6 16.201C15.914 15.782 16.256 15.329 16.633 14.871C15.475 13.802 14.038 13 12 13H11V15H12C13.471 15 14.505 15.586 15.406 16.455Z" fill="#F0F9FF"/>
<path d="M24 21C22.529 21 21.495 20.414 20.594 19.545C20.528 19.632 20.469 19.707 20.4 19.799C20.084 20.221 19.744 20.672 19.372 21.127C20.331 22.005 21.48 22.7 23 22.915V25L27 21H24Z" fill="#F0F9FF"/>
</svg>
