<svg width="36" height="36" viewBox="0 0 36 36" fill="none" xmlns="http://www.w3.org/2000/svg">
<circle cx="18" cy="18" r="18" fill="#24292E"/>
<path fill-rule="evenodd" clip-rule="evenodd" d="M18 10.2C13.6 10.2 10 13.8 10 18.2C10 21.7 12.3 24.7 15.5 25.8C15.9 25.9 16 25.6 16 25.4C16 25.2 16 24.7 16 24C13.8 24.5 13.3 23 13.3 23C12.9 22.1 12.4 21.8 12.4 21.8C11.7 21.3 12.5 21.3 12.5 21.3C13.3 21.4 13.7 22.1 13.7 22.1C14.4 23.4 15.6 23 16 22.8C16.1 22.3 16.3 21.9 16.5 21.7C14.7 21.5 12.9 20.8 12.9 17.7C12.9 16.8 13.2 16.1 13.7 15.6C13.6 15.4 13.3 14.6 13.8 13.5C13.8 13.5 14.5 13.3 16 14.3C16.6 14.1 17.3 14 18 14C18.7 14 19.4 14.1 20 14.3C21.5 13.3 22.2 13.5 22.2 13.5C22.6 14.6 22.4 15.4 22.3 15.6C22.8 16.2 23.1 16.9 23.1 17.7C23.1 20.8 21.2 21.4 19.4 21.6C19.7 22 20 22.5 20 23.2C20 24.3 20 25.1 20 25.4C20 25.6 20.1 25.9 20.6 25.8C23.8 24.7 26.1 21.7 26.1 18.2C26 13.8 22.4 10.2 18 10.2Z" fill="white"/>
</svg>
