<svg width="36" height="36" viewBox="0 0 36 36" fill="none" xmlns="http://www.w3.org/2000/svg">
<circle cx="18" cy="18" r="18" fill="#1DA1F2"/>
<path d="M26 13.5C25.4 13.8 24.8 13.9 24.1 14C24.8 13.6 25.3 13 25.5 12.2C24.9 12.6 24.2 12.8 23.4 13C22.8 12.4 21.9 12 21 12C19.3 12 17.8 13.5 17.8 15.3C17.8 15.6 17.8 15.8 17.9 16C15.2 15.9 12.7 14.6 11.1 12.6C10.8 13.1 10.7 13.6 10.7 14.3C10.7 15.4 11.3 16.4 12.2 17C11.7 17 11.2 16.8 10.7 16.6C10.7 18.2 11.8 19.5 13.3 19.8C13 19.9 12.7 19.9 12.4 19.9C12.2 19.9 12 19.9 11.8 19.8C12.2 21.1 13.4 22.1 14.9 22.1C13.8 23 12.4 23.5 10.8 23.5C10.5 23.5 10.3 23.5 10 23.5C11.5 24.4 13.2 25 15 25C21 25 24.3 20 24.3 15.7C24.3 15.6 24.3 15.4 24.3 15.3C25 14.8 25.6 14.2 26 13.5Z" fill="white"/>
</svg>
