<svg width="36" height="36" viewBox="0 0 36 36" fill="none" xmlns="http://www.w3.org/2000/svg">
<circle cx="18" cy="18" r="18" fill="#4BC9FF"/>
<path d="M26 14.3C25.9 15.9 24.8 18 22.7 20.7C20.5 23.5 18.7 24.9 17.2 24.9C16.3 24.9 15.5 24 14.8 22.3C14 19.9 13.4 15 12 15C11.9 15 11.5 15.3 10.8 15.8L10 14.8C10.8 14.1 13.5 11.4 14.7 11.3C15.9 11.2 16.7 12 17 13.8C17.3 15.8 17.8 19.9 18.8 19.9C19.7 19.9 21.3 16.5 21.4 15.9C21.5 15 21.1 14 19.1 14.8C19.9 12.2 21.4 11 23.6 11C25.3 11.1 26.1 12.2 26 14.3Z" fill="white"/>
</svg>
